<svg width="100" height="100" viewBox="0 0 100 100" fill="none" xmlns="http://www.w3.org/2000/svg">
<path d="M50 0L50.6257 46.0492L65.4509 2.44717L51.816 46.436L79.3893 9.54915L52.8284 47.1716L90.4509 20.6107L53.564 48.184L97.5528 34.5491L53.9508 49.3743L100 50L53.9508 50.6257L97.5528 65.4509L53.564 51.816L90.4509 79.3893L52.8284 52.8284L79.3893 90.4509L51.816 53.564L65.4509 97.5528L50.6257 53.9508L50 100L49.3743 53.9508L34.5491 97.5528L48.184 53.564L20.6107 90.4509L47.1716 52.8284L9.54915 79.3893L46.436 51.816L2.44717 65.4509L46.0492 50.6257L0 50L46.0492 49.3743L2.44717 34.5491L46.436 48.184L9.54915 20.6107L47.1716 47.1716L20.6107 9.54915L48.184 46.436L34.5491 2.44717L49.3743 46.0492L50 0Z" fill="url(#paint0_diamond_506_11451)"/>
<defs>
<radialGradient id="paint0_diamond_506_11451" cx="0" cy="0" r="1" gradientUnits="userSpaceOnUse" gradientTransform="translate(50 50) rotate(90) scale(50)">
<stop offset="0.166667" stop-color="#4F4CEA"/>
<stop offset="0.875" stop-color="#E87045"/>
</radialGradient>
</defs>
</svg>
